Coordinates
version=1
nRows=11
nColumns=36
inDegrees=yes

Units are S.I. units (second, meters, Newtons, ...)
If the header above contains a line with 'inDegrees', this indicates whether rotational values are in degrees (yes) or radians (no).

endheader
time	pelvis_tilt	pelvis_list	pelvis_rotation	pelvis_tx	pelvis_ty	pelvis_tz	hip_flexion_r	hip_adduction_r	hip_rotation_r	knee_angle_r	knee_angle_r_beta	ankle_angle_r	subtalar_angle_r	mtp_angle_r	hip_flexion_l	hip_adduction_l	hip_rotation_l	knee_angle_l	knee_angle_l_beta	ankle_angle_l	subtalar_angle_l	mtp_angle_l	lumbar_extension	lumbar_bending	lumbar_rotation	arm_flex_r	arm_add_r	arm_rot_r	elbow_flex_r	pro_sup_r	arm_flex_l	arm_add_l	arm_rot_l	elbow_flex_l	pro_sup_l
     44.73333330	      3.90767493	     -0.83300942	    181.83527001	      0.33365513	      0.93182189	      0.66319012	     30.16363624	     -5.31707940	     -2.50332799	     28.07818138	      0.49005671	     -8.14784875	    -25.33764568	     -7.49999987	      7.73103829	     -1.49693775	      5.36590093	     47.77815665	      0.83388614	     11.84138729	    -11.06305794	     -7.49999987	    -11.05534048	     -0.48292627	     -2.62804540	      0.60545445	    -12.33322874	     -7.38769480	     25.05398158	     75.38994388	     16.79586411	    -21.93797865	     -4.12780991	    123.92407920	     75.44333794
     44.75000000	      4.00678823	     -0.80294790	    181.73035088	      0.33830712	      0.92961759	      0.65389728	     31.01860724	     -4.60153413	     -1.92146193	     30.96809250	      0.54049518	     -7.56419516	    -27.06800864	     -7.49999987	     10.43188677	     -1.95550124	      5.53049335	     54.30917118	      0.94787385	      9.80396461	    -12.50360637	     -7.49999987	    -11.15743853	     -0.83391871	     -2.10512081	      1.22761307	    -11.57458273	     -8.24349060	     24.69470825	     75.35916075	     16.07354755	    -22.19921257	     -3.91760682	    121.03543384	     76.52380544
     44.76666670	      4.12095727	     -0.80976875	    181.78424249	      0.34292242	      0.92881625	      0.64671898	     31.69785096	     -3.90572911	     -1.48525702	     33.64753240	      0.58726023	     -5.85708920	    -27.92321087	     -7.49999987	     13.36762267	     -2.43126760	      5.76963910	     60.79360479	      1.06104857	      6.70648892	    -13.90253046	     -7.49999987	    -11.53136204	     -1.27518395	     -1.48615033	      1.97992133	    -10.91796842	     -8.71614631	     24.53238049	     75.33605207	     15.49053998	    -22.64068713	     -3.21391504	    118.44150346	     77.71918488
     44.78333330	      4.27204932	     -0.80643768	    181.83886232	      0.34499388	      0.93003116	      0.64284200	     32.09495195	     -3.24352354	     -1.04769776	     35.75823190	      0.62409888	     -3.85282780	    -28.33929234	     -7.49999987	     16.17481881	     -2.85092253	      5.84862384	     66.58340098	      1.16209957	      2.80904362	    -14.93430814	     -7.49999987	    -11.95759996	     -1.60024814	     -0.03617108	      2.31968055	    -10.62489178	     -9.40891431	     24.70567352	     75.57396702	     14.88433727	    -22.33444943	     -2.81594839	    116.43541287	     88.72325817
     44.80000000	      4.60704803	     -0.84678585	    181.95191522	      0.34436668	      0.93320881	      0.64055338	     32.17969998	     -2.74529066	     -0.59677689	     36.94858718	      0.64487450	     -2.71136202	    -28.90833998	     -7.49999987	     18.81869371	     -2.96756005	      5.87110641	     71.03561289	      1.23980533	     -1.83824838	    -15.92959859	     -7.49999987	    -12.02750898	     -1.77576892	      1.59684600	      2.42494257	    -10.64296992	     -9.43782336	     24.93099257	     73.56844092	     13.53572980	    -22.09773684	     -1.48729304	    115.19038674	     86.33739994
     44.81666670	      4.73048438	     -0.87597625	    182.27520460	      0.34105449	      0.93974919	      0.63879884	     31.50483900	     -2.56272459	     -0.70723674	     37.29018848	      0.65083657	     -2.00531814	    -28.76113132	     -7.49999987	     20.94118405	     -2.80065474	      6.00209336	     73.88897768	      1.28960594	     -5.60926661	    -16.43083260	     -7.49999987	    -12.16225376	     -1.65819314	      1.06693683	      3.78661080	    -10.70746803	     -5.67924198	     23.79758851	     73.02116714	      9.51217597	    -21.46817690	     -4.08340025	    114.27004501	     90.41298441
     44.83333330	      4.40813218	     -0.90611603	    182.51627932	      0.33604921	      0.94888534	      0.63678107	     29.68050758	     -2.40577222	     -0.89528463	     36.32108133	      0.63392246	     -2.36448772	    -28.90101355	     -7.49999987	     22.37656698	     -2.61746488	      5.94117354	     75.18482150	      1.31222268	     -8.77263080	    -17.24326759	     -7.49999987	    -12.62452418	     -1.57410077	      1.96438547	      3.84355646	    -10.52845640	     -5.53906565	     23.82636113	     72.22752560	      6.82167808	    -20.80889941	     -3.73880730	    111.58779213	     89.51793102
     44.85000000	      3.89357788	     -0.84839460	    182.75446680	      0.33302023	      0.95721541	      0.63509556	     27.29576116	     -2.18657769	     -1.22348113	     34.54581827	      0.60293827	     -2.67631694	    -28.54906489	     -7.49999987	     23.82677980	     -2.66736145	      5.65007048	     75.80841176	      1.32310639	    -10.68834295	    -18.10536948	     -7.49999987	    -13.36586252	     -1.44700533	      2.57624078	      4.02127722	    -10.38175317	     -5.13330382	     24.01663346	     72.12742426	      4.19274740	    -20.20222080	     -3.62044229	    109.10081654	     89.49178186
     44.86666670	      3.34346784	     -0.90854205	    182.95168541	      0.33499797	      0.96226521	      0.63400119	     24.83195935	     -1.99477307	     -1.36727716	     32.43619840	      0.56611846	     -3.44251930	    -28.21828746	     -7.49999987	     25.56685396	     -2.81887996	      4.89794466	     76.21322803	      1.33017176	    -11.65113490	    -19.10198073	     -7.49999987	    -14.13753337	     -1.57711456	      3.45036499	      4.38978018	    -10.48445468	     -4.41445197	     23.91548838	     71.44595601	      2.61334448	    -19.60535338	     -2.80483131	    106.90694088	     88.62122962
     44.88333330	      2.93474510	     -0.96400949	    183.20540566	      0.33991466	      0.96441158	      0.63339483	     22.71033414	     -1.71183234	     -1.40307168	     30.50922246	      0.53248638	     -3.52889023	    -26.83286554	     -7.49999987	     27.59567159	     -3.11360067	      3.89384720	     76.47606110	      1.33475907	    -11.92762487	    -20.00443789	     -7.49999987	    -14.88816990	     -1.72958405	      4.27293200	      4.79500112	    -10.89783621	     -3.79488757	     24.78508007	     70.73447478	      1.67999521	    -19.13739059	     -1.51342299	    106.09050797	     87.46162159
     44.90000000	      2.97090962	     -1.00446818	    183.56368439	      0.34326503	      0.96806060	      0.63347114	     21.18716200	     -1.35860525	     -1.44964433	     28.90769214	      0.50453441	     -3.11448499	    -25.15266039	     -7.49999987	     29.86803414	     -3.43005804	      2.82055257	     76.26667692	      1.33110462	    -11.90483519	    -20.66705507	     -7.49999987	    -14.79127018	     -1.89723578	      4.87665846	      5.47330015	    -11.33601574	     -3.24982370	     24.70721630	     70.11454703	      1.08813222	    -18.64058568	      0.27661643	    105.51882068	     86.88489698
